<svg xmlns="http://www.w3.org/2000/svg" version="1.1" xmlns:xlink="http://www.w3.org/1999/xlink" xmlns:svgjs="http://svgjs.dev/svgjs" width="1440" height="560" preserveAspectRatio="none" viewBox="0 0 1440 560"><g mask="url(&quot;#SvgjsMask1000&quot;)" fill="none"><rect width="1440" height="560" x="0" y="0" fill="#0e2a47"></rect><path d="M-89.14 404.89L-89.14 404.89" stroke="#132e65" stroke-width="1.5"></path><path d="M-89.14 404.89L93.4 373.66" stroke="#132e65" stroke-width="1.5"></path><path d="M-89.14 404.89L80.74 561.92" stroke="#132e65" stroke-width="1.5"></path><path d="M-89.14 404.89L-111.1 644.21" stroke="#132e65" stroke-width="1.5"></path><path d="M-89.14 404.89L187.76 552.43" stroke="#132e65" stroke-width="1.5"></path><path d="M-111.1 644.21L-111.1 644.21" stroke="#132e65" stroke-width="1.5"></path><path d="M-111.1 644.21L80.74 561.92" stroke="#132e65" stroke-width="1.5"></path><path d="M-111.1 644.21L108.24 673.36" stroke="#132e65" stroke-width="1.5"></path><path d="M-111.1 644.21L187.76 552.43" stroke="#132e65" stroke-width="1.5"></path><path d="M93.4 373.66L93.4 373.66" stroke="#132e65" stroke-width="1.5"></path><path d="M93.4 373.66L243.28 402.75" stroke="#132e65" stroke-width="1.5"></path><path d="M93.4 373.66L80.74 561.92" stroke="#132e65" stroke-width="1.5"></path><path d="M93.4 373.66L187.76 552.43" stroke="#132e65" stroke-width="1.5"></path><path d="M93.4 373.66L108.24 673.36" stroke="#132e65" stroke-width="1.5"></path><path d="M80.74 561.92L80.74 561.92" stroke="#132e65" stroke-width="1.5"></path><path d="M80.74 561.92L187.76 552.43" stroke="#132e65" stroke-width="1.5"></path><path d="M80.74 561.92L108.24 673.36" stroke="#132e65" stroke-width="1.5"></path><path d="M80.74 561.92L212.36 652.06" stroke="#132e65" stroke-width="1.5"></path><path d="M108.24 673.36L108.24 673.36" stroke="#132e65" stroke-width="1.5"></path><path d="M108.24 673.36L212.36 652.06" stroke="#132e65" stroke-width="1.5"></path><path d="M108.24 673.36L187.76 552.43" stroke="#132e65" stroke-width="1.5"></path><path d="M243.28 402.75L243.28 402.75" stroke="#132e65" stroke-width="1.5"></path><path d="M243.28 402.75L187.76 552.43" stroke="#132e65" stroke-width="1.5"></path><path d="M243.28 402.75L348.23 533.83" stroke="#132e65" stroke-width="1.5"></path><path d="M187.76 552.43L187.76 552.43" stroke="#132e65" stroke-width="1.5"></path><path d="M187.76 552.43L212.36 652.06" stroke="#132e65" stroke-width="1.5"></path><path d="M212.36 652.06L212.36 652.06" stroke="#132e65" stroke-width="1.5"></path><path d="M212.36 652.06L351.86 711.27" stroke="#132e65" stroke-width="1.5"></path><path d="M212.36 652.06L348.23 533.83" stroke="#132e65" stroke-width="1.5"></path><path d="M348.23 533.83L348.23 533.83" stroke="#132e65" stroke-width="1.5"></path><path d="M348.23 533.83L187.76 552.43" stroke="#132e65" stroke-width="1.5"></path><path d="M351.86 711.27L351.86 711.27" stroke="#132e65" stroke-width="1.5"></path><path d="M351.86 711.27L348.23 533.83" stroke="#132e65" stroke-width="1.5"></path><path d="M351.86 711.27L541.07 645.43" stroke="#132e65" stroke-width="1.5"></path><path d="M351.86 711.27L187.76 552.43" stroke="#132e65" stroke-width="1.5"></path><path d="M351.86 711.27L108.24 673.36" stroke="#132e65" stroke-width="1.5"></path><path d="M351.86 711.27L539.44 532.73" stroke="#132e65" stroke-width="1.5"></path><path d="M522.61 411.19L522.61 411.19" stroke="#132e65" stroke-width="1.5"></path><path d="M522.61 411.19L539.44 532.73" stroke="#132e65" stroke-width="1.5"></path><path d="M522.61 411.19L659.44 405.47" stroke="#132e65" stroke-width="1.5"></path><path d="M539.44 532.73L539.44 532.73" stroke="#132e65" stroke-width="1.5"></path><path d="M539.44 532.73L541.07 645.43" stroke="#132e65" stroke-width="1.5"></path><path d="M539.44 532.73L657.8 552.56" stroke="#132e65" stroke-width="1.5"></path><path d="M539.44 532.73L659.44 405.47" stroke="#132e65" stroke-width="1.5"></path><path d="M539.44 532.73L348.23 533.83" stroke="#132e65" stroke-width="1.5"></path><path d="M541.07 645.43L541.07 645.43" stroke="#132e65" stroke-width="1.5"></path><path d="M541.07 645.43L664.71 680" stroke="#132e65" stroke-width="1.5"></path><path d="M541.07 645.43L657.8 552.56" stroke="#132e65" stroke-width="1.5"></path><path d="M657.59 223.66L657.59 223.66" stroke="#132e65" stroke-width="1.5"></path><path d="M657.59 223.66L821.38 222.4" stroke="#132e65" stroke-width="1.5"></path><path d="M657.59 223.66L659.44 405.47" stroke="#132e65" stroke-width="1.5"></path><path d="M657.59 223.66L522.61 411.19" stroke="#132e65" stroke-width="1.5"></path><path d="M657.59 223.66L848.69 71.04" stroke="#132e65" stroke-width="1.5"></path><path d="M657.59 223.66L859.8 365.1" stroke="#132e65" stroke-width="1.5"></path><path d="M659.44 405.47L659.44 405.47" stroke="#132e65" stroke-width="1.5"></path><path d="M659.44 405.47L657.8 552.56" stroke="#132e65" stroke-width="1.5"></path><path d="M659.44 405.47L859.8 365.1" stroke="#132e65" stroke-width="1.5"></path><path d="M659.44 405.47L809.79 551.59" stroke="#132e65" stroke-width="1.5"></path><path d="M657.8 552.56L657.8 552.56" stroke="#132e65" stroke-width="1.5"></path><path d="M657.8 552.56L664.71 680" stroke="#132e65" stroke-width="1.5"></path><path d="M664.71 680L664.71 680" stroke="#132e65" stroke-width="1.5"></path><path d="M848.69 71.04L848.69 71.04" stroke="#132e65" stroke-width="1.5"></path><path d="M848.69 71.04L989.16 76.4" stroke="#132e65" stroke-width="1.5"></path><path d="M848.69 71.04L821.38 222.4" stroke="#132e65" stroke-width="1.5"></path><path d="M848.69 71.04L1002.94 -105.3" stroke="#132e65" stroke-width="1.5"></path><path d="M848.69 71.04L1100.23 -71.02" stroke="#132e65" stroke-width="1.5"></path><path d="M848.69 71.04L859.8 365.1" stroke="#132e65" stroke-width="1.5"></path><path d="M821.38 222.4L821.38 222.4" stroke="#132e65" stroke-width="1.5"></path><path d="M821.38 222.4L859.8 365.1" stroke="#132e65" stroke-width="1.5"></path><path d="M859.8 365.1L859.8 365.1" stroke="#132e65" stroke-width="1.5"></path><path d="M859.8 365.1L957.77 379.22" stroke="#132e65" stroke-width="1.5"></path><path d="M859.8 365.1L990.6 497.83" stroke="#132e65" stroke-width="1.5"></path><path d="M859.8 365.1L809.79 551.59" stroke="#132e65" stroke-width="1.5"></path><path d="M809.79 551.59L809.79 551.59" stroke="#132e65" stroke-width="1.5"></path><path d="M809.79 551.59L820.74 691.69" stroke="#132e65" stroke-width="1.5"></path><path d="M809.79 551.59L657.8 552.56" stroke="#132e65" stroke-width="1.5"></path><path d="M809.79 551.59L990.6 497.83" stroke="#132e65" stroke-width="1.5"></path><path d="M809.79 551.59L958.03 673.14" stroke="#132e65" stroke-width="1.5"></path><path d="M809.79 551.59L664.71 680" stroke="#132e65" stroke-width="1.5"></path><path d="M820.74 691.69L820.74 691.69" stroke="#132e65" stroke-width="1.5"></path><path d="M820.74 691.69L958.03 673.14" stroke="#132e65" stroke-width="1.5"></path><path d="M1002.94 -105.3L1002.94 -105.3" stroke="#132e65" stroke-width="1.5"></path><path d="M1002.94 -105.3L1100.23 -71.02" stroke="#132e65" stroke-width="1.5"></path><path d="M1002.94 -105.3L989.16 76.4" stroke="#132e65" stroke-width="1.5"></path><path d="M1002.94 -105.3L1159.16 84.37" stroke="#132e65" stroke-width="1.5"></path><path d="M1002.94 -105.3L1273.09 -58.37" stroke="#132e65" stroke-width="1.5"></path><path d="M989.16 76.4L989.16 76.4" stroke="#132e65" stroke-width="1.5"></path><path d="M989.16 76.4L1159.16 84.37" stroke="#132e65" stroke-width="1.5"></path><path d="M957.77 379.22L957.77 379.22" stroke="#132e65" stroke-width="1.5"></path><path d="M957.77 379.22L990.6 497.83" stroke="#132e65" stroke-width="1.5"></path><path d="M957.77 379.22L1137.34 382.48" stroke="#132e65" stroke-width="1.5"></path><path d="M990.6 497.83L990.6 497.83" stroke="#132e65" stroke-width="1.5"></path><path d="M990.6 497.83L1097.61 514.47" stroke="#132e65" stroke-width="1.5"></path><path d="M990.6 497.83L958.03 673.14" stroke="#132e65" stroke-width="1.5"></path><path d="M990.6 497.83L1137.34 382.48" stroke="#132e65" stroke-width="1.5"></path><path d="M958.03 673.14L958.03 673.14" stroke="#132e65" stroke-width="1.5"></path><path d="M958.03 673.14L1103.6 680.85" stroke="#132e65" stroke-width="1.5"></path><path d="M1100.23 -71.02L1100.23 -71.02" stroke="#132e65" stroke-width="1.5"></path><path d="M1100.23 -71.02L1159.16 84.37" stroke="#132e65" stroke-width="1.5"></path><path d="M1100.23 -71.02L1273.09 -58.37" stroke="#132e65" stroke-width="1.5"></path><path d="M1100.23 -71.02L989.16 76.4" stroke="#132e65" stroke-width="1.5"></path><path d="M1100.23 -71.02L1270.18 62.27" stroke="#132e65" stroke-width="1.5"></path><path d="M1159.16 84.37L1159.16 84.37" stroke="#132e65" stroke-width="1.5"></path><path d="M1159.16 84.37L1270.18 62.27" stroke="#132e65" stroke-width="1.5"></path><path d="M1159.16 84.37L1129.06 211.73" stroke="#132e65" stroke-width="1.5"></path><path d="M1159.16 84.37L1239.83 232.62" stroke="#132e65" stroke-width="1.5"></path><path d="M1159.16 84.37L1273.09 -58.37" stroke="#132e65" stroke-width="1.5"></path><path d="M1129.06 211.73L1129.06 211.73" stroke="#132e65" stroke-width="1.5"></path><path d="M1129.06 211.73L1239.83 232.62" stroke="#132e65" stroke-width="1.5"></path><path d="M1129.06 211.73L1137.34 382.48" stroke="#132e65" stroke-width="1.5"></path><path d="M1129.06 211.73L989.16 76.4" stroke="#132e65" stroke-width="1.5"></path><path d="M1129.06 211.73L1270.18 62.27" stroke="#132e65" stroke-width="1.5"></path><path d="M1137.34 382.48L1137.34 382.48" stroke="#132e65" stroke-width="1.5"></path><path d="M1137.34 382.48L1097.61 514.47" stroke="#132e65" stroke-width="1.5"></path><path d="M1137.34 382.48L1278.78 354.61" stroke="#132e65" stroke-width="1.5"></path><path d="M1137.34 382.48L1239.83 232.62" stroke="#132e65" stroke-width="1.5"></path><path d="M1097.61 514.47L1097.61 514.47" stroke="#132e65" stroke-width="1.5"></path><path d="M1097.61 514.47L1103.6 680.85" stroke="#132e65" stroke-width="1.5"></path><path d="M1097.61 514.47L957.77 379.22" stroke="#132e65" stroke-width="1.5"></path><path d="M1103.6 680.85L1103.6 680.85" stroke="#132e65" stroke-width="1.5"></path><path d="M1103.6 680.85L1306.6 706.86" stroke="#132e65" stroke-width="1.5"></path><path d="M1103.6 680.85L990.6 497.83" stroke="#132e65" stroke-width="1.5"></path><path d="M1103.6 680.85L1298.67 533.41" stroke="#132e65" stroke-width="1.5"></path><path d="M1273.09 -58.37L1273.09 -58.37" stroke="#132e65" stroke-width="1.5"></path><path d="M1273.09 -58.37L1270.18 62.27" stroke="#132e65" stroke-width="1.5"></path><path d="M1273.09 -58.37L1430.79 -48.27" stroke="#132e65" stroke-width="1.5"></path><path d="M1273.09 -58.37L1410.2 50.97" stroke="#132e65" stroke-width="1.5"></path><path d="M1270.18 62.27L1270.18 62.27" stroke="#132e65" stroke-width="1.5"></path><path d="M1270.18 62.27L1410.2 50.97" stroke="#132e65" stroke-width="1.5"></path><path d="M1270.18 62.27L1239.83 232.62" stroke="#132e65" stroke-width="1.5"></path><path d="M1270.18 62.27L1430.79 -48.27" stroke="#132e65" stroke-width="1.5"></path><path d="M1239.83 232.62L1239.83 232.62" stroke="#132e65" stroke-width="1.5"></path><path d="M1239.83 232.62L1278.78 354.61" stroke="#132e65" stroke-width="1.5"></path><path d="M1278.78 354.61L1278.78 354.61" stroke="#132e65" stroke-width="1.5"></path><path d="M1298.67 533.41L1298.67 533.41" stroke="#132e65" stroke-width="1.5"></path><path d="M1298.67 533.41L1434 544.18" stroke="#132e65" stroke-width="1.5"></path><path d="M1298.67 533.41L1394.63 640.72" stroke="#132e65" stroke-width="1.5"></path><path d="M1298.67 533.41L1306.6 706.86" stroke="#132e65" stroke-width="1.5"></path><path d="M1298.67 533.41L1278.78 354.61" stroke="#132e65" stroke-width="1.5"></path><path d="M1306.6 706.86L1306.6 706.86" stroke="#132e65" stroke-width="1.5"></path><path d="M1306.6 706.86L1394.63 640.72" stroke="#132e65" stroke-width="1.5"></path><path d="M1430.79 -48.27L1430.79 -48.27" stroke="#132e65" stroke-width="1.5"></path><path d="M1430.79 -48.27L1410.2 50.97" stroke="#132e65" stroke-width="1.5"></path><path d="M1430.79 -48.27L1582.78 -73.57" stroke="#132e65" stroke-width="1.5"></path><path d="M1410.2 50.97L1410.2 50.97" stroke="#132e65" stroke-width="1.5"></path><path d="M1410.2 50.97L1410.88 205.47" stroke="#132e65" stroke-width="1.5"></path><path d="M1410.2 50.97L1582.78 -73.57" stroke="#132e65" stroke-width="1.5"></path><path d="M1410.88 205.47L1410.88 205.47" stroke="#132e65" stroke-width="1.5"></path><path d="M1410.88 205.47L1462.26 354.43" stroke="#132e65" stroke-width="1.5"></path><path d="M1410.88 205.47L1239.83 232.62" stroke="#132e65" stroke-width="1.5"></path><path d="M1410.88 205.47L1278.78 354.61" stroke="#132e65" stroke-width="1.5"></path><path d="M1462.26 354.43L1462.26 354.43" stroke="#132e65" stroke-width="1.5"></path><path d="M1462.26 354.43L1597.23 371.94" stroke="#132e65" stroke-width="1.5"></path><path d="M1462.26 354.43L1278.78 354.61" stroke="#132e65" stroke-width="1.5"></path><path d="M1434 544.18L1434 544.18" stroke="#132e65" stroke-width="1.5"></path><path d="M1434 544.18L1394.63 640.72" stroke="#132e65" stroke-width="1.5"></path><path d="M1434 544.18L1542.29 528.01" stroke="#132e65" stroke-width="1.5"></path><path d="M1434 544.18L1462.26 354.43" stroke="#132e65" stroke-width="1.5"></path><path d="M1434 544.18L1306.6 706.86" stroke="#132e65" stroke-width="1.5"></path><path d="M1394.63 640.72L1394.63 640.72" stroke="#132e65" stroke-width="1.5"></path><path d="M1582.78 -73.57L1582.78 -73.57" stroke="#132e65" stroke-width="1.5"></path><path d="M1582.78 -73.57L1273.09 -58.37" stroke="#132e65" stroke-width="1.5"></path><path d="M1582.78 -73.57L1410.88 205.47" stroke="#132e65" stroke-width="1.5"></path><path d="M1597.23 371.94L1597.23 371.94" stroke="#132e65" stroke-width="1.5"></path><path d="M1597.23 371.94L1542.29 528.01" stroke="#132e65" stroke-width="1.5"></path><path d="M1542.29 528.01L1542.29 528.01" stroke="#132e65" stroke-width="1.5"></path><path d="M1582.54 700.05L1582.54 700.05" stroke="#132e65" stroke-width="1.5"></path><path d="M1582.54 700.05L1542.29 528.01" stroke="#132e65" stroke-width="1.5"></path><circle r="5" cx="-89.14" cy="404.89" fill="#132e65"></circle><circle r="5" cx="-111.1" cy="644.21" fill="#132e65"></circle><circle r="5" cx="93.4" cy="373.66" fill="#132e65"></circle><circle r="5" cx="80.74" cy="561.92" fill="#132e65"></circle><circle r="5" cx="108.24" cy="673.36" fill="#132e65"></circle><circle r="5" cx="243.28" cy="402.75" fill="#132e65"></circle><circle r="5" cx="187.76" cy="552.43" fill="#132e65"></circle><circle r="5" cx="212.36" cy="652.06" fill="#132e65"></circle><circle r="5" cx="348.23" cy="533.83" fill="#132e65"></circle><circle r="5" cx="351.86" cy="711.27" fill="#132e65"></circle><circle r="5" cx="522.61" cy="411.19" fill="#132e65"></circle><circle r="5" cx="539.44" cy="532.73" fill="#132e65"></circle><circle r="5" cx="541.07" cy="645.43" fill="#132e65"></circle><circle r="5" cx="657.59" cy="223.66" fill="#132e65"></circle><circle r="5" cx="659.44" cy="405.47" fill="#132e65"></circle><circle r="5" cx="657.8" cy="552.56" fill="#132e65"></circle><circle r="5" cx="664.71" cy="680" fill="#132e65"></circle><circle r="5" cx="848.69" cy="71.04" fill="#132e65"></circle><circle r="5" cx="821.38" cy="222.4" fill="#132e65"></circle><circle r="5" cx="859.8" cy="365.1" fill="#132e65"></circle><circle r="5" cx="809.79" cy="551.59" fill="#132e65"></circle><circle r="5" cx="820.74" cy="691.69" fill="#132e65"></circle><circle r="5" cx="1002.94" cy="-105.3" fill="#132e65"></circle><circle r="5" cx="989.16" cy="76.4" fill="#132e65"></circle><circle r="5" cx="957.77" cy="379.22" fill="#132e65"></circle><circle r="5" cx="990.6" cy="497.83" fill="#132e65"></circle><circle r="5" cx="958.03" cy="673.14" fill="#132e65"></circle><circle r="5" cx="1100.23" cy="-71.02" fill="#132e65"></circle><circle r="5" cx="1159.16" cy="84.37" fill="#132e65"></circle><circle r="5" cx="1129.06" cy="211.73" fill="#132e65"></circle><circle r="5" cx="1137.34" cy="382.48" fill="#132e65"></circle><circle r="5" cx="1097.61" cy="514.47" fill="#132e65"></circle><circle r="5" cx="1103.6" cy="680.85" fill="#132e65"></circle><circle r="5" cx="1273.09" cy="-58.37" fill="#132e65"></circle><circle r="5" cx="1270.18" cy="62.27" fill="#132e65"></circle><circle r="5" cx="1239.83" cy="232.62" fill="#132e65"></circle><circle r="5" cx="1278.78" cy="354.61" fill="#132e65"></circle><circle r="5" cx="1298.67" cy="533.41" fill="#132e65"></circle><circle r="5" cx="1306.6" cy="706.86" fill="#132e65"></circle><circle r="5" cx="1430.79" cy="-48.27" fill="#132e65"></circle><circle r="5" cx="1410.2" cy="50.97" fill="#132e65"></circle><circle r="5" cx="1410.88" cy="205.47" fill="#132e65"></circle><circle r="5" cx="1462.26" cy="354.43" fill="#132e65"></circle><circle r="5" cx="1434" cy="544.18" fill="#132e65"></circle><circle r="5" cx="1394.63" cy="640.72" fill="#132e65"></circle><circle r="5" cx="1582.78" cy="-73.57" fill="#132e65"></circle><circle r="5" cx="1597.23" cy="371.94" fill="#132e65"></circle><circle r="5" cx="1542.29" cy="528.01" fill="#132e65"></circle><circle r="5" cx="1582.54" cy="700.05" fill="#132e65"></circle><path d="M98.03 525.95L98.03 525.95" stroke="hsl(228.5, 77.2%, 51.5%)" stroke-width="1.5"></path><path d="M98.03 525.95L100.72 643.29" stroke="hsl(228.5, 77.2%, 51.5%)" stroke-width="1.5"></path><path d="M98.03 525.95L233.03 519.86" stroke="hsl(228.5, 77.2%, 51.5%)" stroke-width="1.5"></path><path d="M98.03 525.95L-86.82 649.86" stroke="hsl(228.5, 77.2%, 51.5%)" stroke-width="1.5"></path><path d="M98.03 525.95L248.44 700.46" stroke="hsl(228.5, 77.2%, 51.5%)" stroke-width="1.5"></path><path d="M374.72 525L374.72 525" stroke="hsl(228.5, 77.2%, 51.5%)" stroke-width="1.5"></path><path d="M374.72 525L233.03 519.86" stroke="hsl(228.5, 77.2%, 51.5%)" stroke-width="1.5"></path><path d="M374.72 525L545.63 519.38" stroke="hsl(228.5, 77.2%, 51.5%)" stroke-width="1.5"></path><path d="M698.5 517.85L698.5 517.85" stroke="hsl(228.5, 77.2%, 51.5%)" stroke-width="1.5"></path><path d="M698.5 517.85L804.35 518.96" stroke="hsl(228.5, 77.2%, 51.5%)" stroke-width="1.5"></path><path d="M698.5 517.85L545.63 519.38" stroke="hsl(228.5, 77.2%, 51.5%)" stroke-width="1.5"></path><path d="M698.5 517.85L690.91 683.18" stroke="hsl(228.5, 77.2%, 51.5%)" stroke-width="1.5"></path><path d="M698.5 517.85L796.91 376.76" stroke="hsl(228.5, 77.2%, 51.5%)" stroke-width="1.5"></path><path d="M698.5 517.85L854.08 646.32" stroke="hsl(228.5, 77.2%, 51.5%)" stroke-width="1.5"></path><path d="M854.08 646.32L854.08 646.32" stroke="hsl(228.5, 77.2%, 51.5%)" stroke-width="1.5"></path><path d="M854.08 646.32L956.51 690.01" stroke="hsl(228.5, 77.2%, 51.5%)" stroke-width="1.5"></path><path d="M854.08 646.32L804.35 518.96" stroke="hsl(228.5, 77.2%, 51.5%)" stroke-width="1.5"></path><path d="M854.08 646.32L690.91 683.18" stroke="hsl(228.5, 77.2%, 51.5%)" stroke-width="1.5"></path><path d="M951.51 504.8L951.51 504.8" stroke="hsl(228.5, 77.2%, 51.5%)" stroke-width="1.5"></path><path d="M951.51 504.8L991.66 409.17" stroke="hsl(228.5, 77.2%, 51.5%)" stroke-width="1.5"></path><path d="M951.51 504.8L804.35 518.96" stroke="hsl(228.5, 77.2%, 51.5%)" stroke-width="1.5"></path><path d="M951.51 504.8L1120.21 531.09" stroke="hsl(228.5, 77.2%, 51.5%)" stroke-width="1.5"></path><path d="M951.51 504.8L854.08 646.32" stroke="hsl(228.5, 77.2%, 51.5%)" stroke-width="1.5"></path><path d="M1121.38 209.72L1121.38 209.72" stroke="hsl(228.5, 77.2%, 51.5%)" stroke-width="1.5"></path><path d="M1121.38 209.72L1238.07 201.29" stroke="hsl(228.5, 77.2%, 51.5%)" stroke-width="1.5"></path><path d="M1121.38 209.72L1094.6 384.83" stroke="hsl(228.5, 77.2%, 51.5%)" stroke-width="1.5"></path><path d="M1121.38 209.72L1251.07 43.41" stroke="hsl(228.5, 77.2%, 51.5%)" stroke-width="1.5"></path><path d="M1121.38 209.72L1295.91 349.56" stroke="hsl(228.5, 77.2%, 51.5%)" stroke-width="1.5"></path><path d="M1121.38 209.72L991.66 409.17" stroke="hsl(228.5, 77.2%, 51.5%)" stroke-width="1.5"></path><path d="M1121.38 209.72L1120.21 531.09" stroke="hsl(228.5, 77.2%, 51.5%)" stroke-width="1.5"></path><path d="M1094.6 384.83L1094.6 384.83" stroke="hsl(228.5, 77.2%, 51.5%)" stroke-width="1.5"></path><path d="M1094.6 384.83L991.66 409.17" stroke="hsl(228.5, 77.2%, 51.5%)" stroke-width="1.5"></path><path d="M1094.6 384.83L1120.21 531.09" stroke="hsl(228.5, 77.2%, 51.5%)" stroke-width="1.5"></path><path d="M1094.6 384.83L951.51 504.8" stroke="hsl(228.5, 77.2%, 51.5%)" stroke-width="1.5"></path><path d="M1094.6 384.83L1295.91 349.56" stroke="hsl(228.5, 77.2%, 51.5%)" stroke-width="1.5"></path><path d="M1449.62 38.21L1449.62 38.21" stroke="hsl(228.5, 77.2%, 51.5%)" stroke-width="1.5"></path><path d="M1449.62 38.21L1399.65 -109.86" stroke="hsl(228.5, 77.2%, 51.5%)" stroke-width="1.5"></path><path d="M1449.62 38.21L1608.8 88.51" stroke="hsl(228.5, 77.2%, 51.5%)" stroke-width="1.5"></path><path d="M1565.42 243.32L1565.42 243.32" stroke="hsl(228.5, 77.2%, 51.5%)" stroke-width="1.5"></path><path d="M1565.42 243.32L1459.53 207.05" stroke="hsl(228.5, 77.2%, 51.5%)" stroke-width="1.5"></path><path d="M1565.42 243.32L1608.8 88.51" stroke="hsl(228.5, 77.2%, 51.5%)" stroke-width="1.5"></path><path d="M-86.82 649.86L-86.82 649.86" stroke="hsl(228.5, 77.2%, 51.5%)" stroke-width="1.5"></path><path d="M-86.82 649.86L100.72 643.29" stroke="hsl(228.5, 77.2%, 51.5%)" stroke-width="1.5"></path><path d="M-86.82 649.86L248.44 700.46" stroke="hsl(228.5, 77.2%, 51.5%)" stroke-width="1.5"></path><path d="M100.72 643.29L100.72 643.29" stroke="hsl(228.5, 77.2%, 51.5%)" stroke-width="1.5"></path><path d="M100.72 643.29L248.44 700.46" stroke="hsl(228.5, 77.2%, 51.5%)" stroke-width="1.5"></path><path d="M100.72 643.29L233.03 519.86" stroke="hsl(228.5, 77.2%, 51.5%)" stroke-width="1.5"></path><path d="M233.03 519.86L233.03 519.86" stroke="hsl(228.5, 77.2%, 51.5%)" stroke-width="1.5"></path><path d="M233.03 519.86L248.44 700.46" stroke="hsl(228.5, 77.2%, 51.5%)" stroke-width="1.5"></path><path d="M233.03 519.86L545.63 519.38" stroke="hsl(228.5, 77.2%, 51.5%)" stroke-width="1.5"></path><path d="M248.44 700.46L248.44 700.46" stroke="hsl(228.5, 77.2%, 51.5%)" stroke-width="1.5"></path><path d="M248.44 700.46L374.72 525" stroke="hsl(228.5, 77.2%, 51.5%)" stroke-width="1.5"></path><path d="M545.63 519.38L545.63 519.38" stroke="hsl(228.5, 77.2%, 51.5%)" stroke-width="1.5"></path><path d="M545.63 519.38L555.7 678.5" stroke="hsl(228.5, 77.2%, 51.5%)" stroke-width="1.5"></path><path d="M545.63 519.38L690.91 683.18" stroke="hsl(228.5, 77.2%, 51.5%)" stroke-width="1.5"></path><path d="M545.63 519.38L804.35 518.96" stroke="hsl(228.5, 77.2%, 51.5%)" stroke-width="1.5"></path><path d="M555.7 678.5L555.7 678.5" stroke="hsl(228.5, 77.2%, 51.5%)" stroke-width="1.5"></path><path d="M555.7 678.5L690.91 683.18" stroke="hsl(228.5, 77.2%, 51.5%)" stroke-width="1.5"></path><path d="M690.91 683.18L690.91 683.18" stroke="hsl(228.5, 77.2%, 51.5%)" stroke-width="1.5"></path><path d="M690.91 683.18L804.35 518.96" stroke="hsl(228.5, 77.2%, 51.5%)" stroke-width="1.5"></path><path d="M690.91 683.18L956.51 690.01" stroke="hsl(228.5, 77.2%, 51.5%)" stroke-width="1.5"></path><path d="M796.91 376.76L796.91 376.76" stroke="hsl(228.5, 77.2%, 51.5%)" stroke-width="1.5"></path><path d="M796.91 376.76L804.35 518.96" stroke="hsl(228.5, 77.2%, 51.5%)" stroke-width="1.5"></path><path d="M796.91 376.76L991.66 409.17" stroke="hsl(228.5, 77.2%, 51.5%)" stroke-width="1.5"></path><path d="M796.91 376.76L951.51 504.8" stroke="hsl(228.5, 77.2%, 51.5%)" stroke-width="1.5"></path><path d="M796.91 376.76L854.08 646.32" stroke="hsl(228.5, 77.2%, 51.5%)" stroke-width="1.5"></path><path d="M796.91 376.76L545.63 519.38" stroke="hsl(228.5, 77.2%, 51.5%)" stroke-width="1.5"></path><path d="M804.35 518.96L804.35 518.96" stroke="hsl(228.5, 77.2%, 51.5%)" stroke-width="1.5"></path><path d="M991.66 409.17L991.66 409.17" stroke="hsl(228.5, 77.2%, 51.5%)" stroke-width="1.5"></path><path d="M956.51 690.01L956.51 690.01" stroke="hsl(228.5, 77.2%, 51.5%)" stroke-width="1.5"></path><path d="M956.51 690.01L1101.92 692.95" stroke="hsl(228.5, 77.2%, 51.5%)" stroke-width="1.5"></path><path d="M1120.21 531.09L1120.21 531.09" stroke="hsl(228.5, 77.2%, 51.5%)" stroke-width="1.5"></path><path d="M1120.21 531.09L1101.92 692.95" stroke="hsl(228.5, 77.2%, 51.5%)" stroke-width="1.5"></path><path d="M1120.21 531.09L991.66 409.17" stroke="hsl(228.5, 77.2%, 51.5%)" stroke-width="1.5"></path><path d="M1120.21 531.09L956.51 690.01" stroke="hsl(228.5, 77.2%, 51.5%)" stroke-width="1.5"></path><path d="M1101.92 692.95L1101.92 692.95" stroke="hsl(228.5, 77.2%, 51.5%)" stroke-width="1.5"></path><path d="M1304.49 -90.75L1304.49 -90.75" stroke="hsl(228.5, 77.2%, 51.5%)" stroke-width="1.5"></path><path d="M1304.49 -90.75L1399.65 -109.86" stroke="hsl(228.5, 77.2%, 51.5%)" stroke-width="1.5"></path><path d="M1304.49 -90.75L1251.07 43.41" stroke="hsl(228.5, 77.2%, 51.5%)" stroke-width="1.5"></path><path d="M1251.07 43.41L1251.07 43.41" stroke="hsl(228.5, 77.2%, 51.5%)" stroke-width="1.5"></path><path d="M1251.07 43.41L1238.07 201.29" stroke="hsl(228.5, 77.2%, 51.5%)" stroke-width="1.5"></path><path d="M1251.07 43.41L1449.62 38.21" stroke="hsl(228.5, 77.2%, 51.5%)" stroke-width="1.5"></path><path d="M1251.07 43.41L1399.65 -109.86" stroke="hsl(228.5, 77.2%, 51.5%)" stroke-width="1.5"></path><path d="M1251.07 43.41L1459.53 207.05" stroke="hsl(228.5, 77.2%, 51.5%)" stroke-width="1.5"></path><path d="M1238.07 201.29L1238.07 201.29" stroke="hsl(228.5, 77.2%, 51.5%)" stroke-width="1.5"></path><path d="M1238.07 201.29L1295.91 349.56" stroke="hsl(228.5, 77.2%, 51.5%)" stroke-width="1.5"></path><path d="M1238.07 201.29L1459.53 207.05" stroke="hsl(228.5, 77.2%, 51.5%)" stroke-width="1.5"></path><path d="M1238.07 201.29L1409.14 356.55" stroke="hsl(228.5, 77.2%, 51.5%)" stroke-width="1.5"></path><path d="M1238.07 201.29L1094.6 384.83" stroke="hsl(228.5, 77.2%, 51.5%)" stroke-width="1.5"></path><path d="M1295.91 349.56L1295.91 349.56" stroke="hsl(228.5, 77.2%, 51.5%)" stroke-width="1.5"></path><path d="M1295.91 349.56L1409.14 356.55" stroke="hsl(228.5, 77.2%, 51.5%)" stroke-width="1.5"></path><path d="M1295.91 349.56L1430.39 504.2" stroke="hsl(228.5, 77.2%, 51.5%)" stroke-width="1.5"></path><path d="M1295.91 349.56L1459.53 207.05" stroke="hsl(228.5, 77.2%, 51.5%)" stroke-width="1.5"></path><path d="M1309.22 678.99L1309.22 678.99" stroke="hsl(228.5, 77.2%, 51.5%)" stroke-width="1.5"></path><path d="M1309.22 678.99L1397.5 666.45" stroke="hsl(228.5, 77.2%, 51.5%)" stroke-width="1.5"></path><path d="M1309.22 678.99L1101.92 692.95" stroke="hsl(228.5, 77.2%, 51.5%)" stroke-width="1.5"></path><path d="M1399.65 -109.86L1399.65 -109.86" stroke="hsl(228.5, 77.2%, 51.5%)" stroke-width="1.5"></path><path d="M1399.65 -109.86L1563.35 -92" stroke="hsl(228.5, 77.2%, 51.5%)" stroke-width="1.5"></path><path d="M1399.65 -109.86L1608.8 88.51" stroke="hsl(228.5, 77.2%, 51.5%)" stroke-width="1.5"></path><path d="M1459.53 207.05L1459.53 207.05" stroke="hsl(228.5, 77.2%, 51.5%)" stroke-width="1.5"></path><path d="M1459.53 207.05L1409.14 356.55" stroke="hsl(228.5, 77.2%, 51.5%)" stroke-width="1.5"></path><path d="M1459.53 207.05L1449.62 38.21" stroke="hsl(228.5, 77.2%, 51.5%)" stroke-width="1.5"></path><path d="M1459.53 207.05L1608.8 88.51" stroke="hsl(228.5, 77.2%, 51.5%)" stroke-width="1.5"></path><path d="M1409.14 356.55L1409.14 356.55" stroke="hsl(228.5, 77.2%, 51.5%)" stroke-width="1.5"></path><path d="M1409.14 356.55L1430.39 504.2" stroke="hsl(228.5, 77.2%, 51.5%)" stroke-width="1.5"></path><path d="M1409.14 356.55L1565.42 243.32" stroke="hsl(228.5, 77.2%, 51.5%)" stroke-width="1.5"></path><path d="M1430.39 504.2L1430.39 504.2" stroke="hsl(228.5, 77.2%, 51.5%)" stroke-width="1.5"></path><path d="M1430.39 504.2L1397.5 666.45" stroke="hsl(228.5, 77.2%, 51.5%)" stroke-width="1.5"></path><path d="M1397.5 666.45L1397.5 666.45" stroke="hsl(228.5, 77.2%, 51.5%)" stroke-width="1.5"></path><path d="M1397.5 666.45L1539.4 707.45" stroke="hsl(228.5, 77.2%, 51.5%)" stroke-width="1.5"></path><path d="M1397.5 666.45L1596.38 550.84" stroke="hsl(228.5, 77.2%, 51.5%)" stroke-width="1.5"></path><path d="M1397.5 666.45L1101.92 692.95" stroke="hsl(228.5, 77.2%, 51.5%)" stroke-width="1.5"></path><path d="M1563.35 -92L1563.35 -92" stroke="hsl(228.5, 77.2%, 51.5%)" stroke-width="1.5"></path><path d="M1563.35 -92L1449.62 38.21" stroke="hsl(228.5, 77.2%, 51.5%)" stroke-width="1.5"></path><path d="M1563.35 -92L1608.8 88.51" stroke="hsl(228.5, 77.2%, 51.5%)" stroke-width="1.5"></path><path d="M1563.35 -92L1304.49 -90.75" stroke="hsl(228.5, 77.2%, 51.5%)" stroke-width="1.5"></path><path d="M1563.35 -92L1459.53 207.05" stroke="hsl(228.5, 77.2%, 51.5%)" stroke-width="1.5"></path><path d="M1608.8 88.51L1608.8 88.51" stroke="hsl(228.5, 77.2%, 51.5%)" stroke-width="1.5"></path><path d="M1608.8 88.51L1409.14 356.55" stroke="hsl(228.5, 77.2%, 51.5%)" stroke-width="1.5"></path><path d="M1596.38 550.84L1596.38 550.84" stroke="hsl(228.5, 77.2%, 51.5%)" stroke-width="1.5"></path><path d="M1596.38 550.84L1539.4 707.45" stroke="hsl(228.5, 77.2%, 51.5%)" stroke-width="1.5"></path><path d="M1596.38 550.84L1430.39 504.2" stroke="hsl(228.5, 77.2%, 51.5%)" stroke-width="1.5"></path><path d="M1539.4 707.45L1539.4 707.45" stroke="hsl(228.5, 77.2%, 51.5%)" stroke-width="1.5"></path><circle r="25" cx="98.03" cy="525.95" fill="url(&quot;#SvgjsRadialGradient1001&quot;)"></circle><circle r="25" cx="374.72" cy="525" fill="url(&quot;#SvgjsRadialGradient1001&quot;)"></circle><circle r="25" cx="698.5" cy="517.85" fill="url(&quot;#SvgjsRadialGradient1001&quot;)"></circle><circle r="25" cx="854.08" cy="646.32" fill="url(&quot;#SvgjsRadialGradient1001&quot;)"></circle><circle r="25" cx="951.51" cy="504.8" fill="url(&quot;#SvgjsRadialGradient1001&quot;)"></circle><circle r="25" cx="1121.38" cy="209.72" fill="url(&quot;#SvgjsRadialGradient1001&quot;)"></circle><circle r="25" cx="1094.6" cy="384.83" fill="url(&quot;#SvgjsRadialGradient1001&quot;)"></circle><circle r="25" cx="1449.62" cy="38.21" fill="url(&quot;#SvgjsRadialGradient1001&quot;)"></circle><circle r="25" cx="1565.42" cy="243.32" fill="url(&quot;#SvgjsRadialGradient1001&quot;)"></circle><circle r="5" cx="-86.82" cy="649.86" fill="#8b9ad9"></circle><circle r="5" cx="100.72" cy="643.29" fill="#8b9ad9"></circle><circle r="5" cx="233.03" cy="519.86" fill="#8b9ad9"></circle><circle r="5" cx="248.44" cy="700.46" fill="#8b9ad9"></circle><circle r="5" cx="545.63" cy="519.38" fill="#8b9ad9"></circle><circle r="5" cx="555.7" cy="678.5" fill="#8b9ad9"></circle><circle r="5" cx="690.91" cy="683.18" fill="#8b9ad9"></circle><circle r="5" cx="796.91" cy="376.76" fill="#8b9ad9"></circle><circle r="5" cx="804.35" cy="518.96" fill="#8b9ad9"></circle><circle r="5" cx="991.66" cy="409.17" fill="#8b9ad9"></circle><circle r="5" cx="956.51" cy="690.01" fill="#8b9ad9"></circle><circle r="5" cx="1120.21" cy="531.09" fill="#8b9ad9"></circle><circle r="5" cx="1101.92" cy="692.95" fill="#8b9ad9"></circle><circle r="5" cx="1304.49" cy="-90.75" fill="#8b9ad9"></circle><circle r="5" cx="1251.07" cy="43.41" fill="#8b9ad9"></circle><circle r="5" cx="1238.07" cy="201.29" fill="#8b9ad9"></circle><circle r="5" cx="1295.91" cy="349.56" fill="#8b9ad9"></circle><circle r="5" cx="1309.22" cy="678.99" fill="#8b9ad9"></circle><circle r="5" cx="1399.65" cy="-109.86" fill="#8b9ad9"></circle><circle r="5" cx="1459.53" cy="207.05" fill="#8b9ad9"></circle><circle r="5" cx="1409.14" cy="356.55" fill="#8b9ad9"></circle><circle r="5" cx="1430.39" cy="504.2" fill="#8b9ad9"></circle><circle r="5" cx="1397.5" cy="666.45" fill="#8b9ad9"></circle><circle r="5" cx="1563.35" cy="-92" fill="#8b9ad9"></circle><circle r="5" cx="1608.8" cy="88.51" fill="#8b9ad9"></circle><circle r="5" cx="1596.38" cy="550.84" fill="#8b9ad9"></circle><circle r="5" cx="1539.4" cy="707.45" fill="#8b9ad9"></circle></g><defs><mask id="SvgjsMask1000"><rect width="1440" height="560" fill="#ffffff"></rect></mask><radialGradient id="SvgjsRadialGradient1001"><stop stop-color="#ffffff" offset="0.1"></stop><stop stop-color="#1735b3" offset="0.2"></stop><stop stop-color="rgba(23, 53, 179, 0)" offset="1"></stop></radialGradient></defs></svg>